<?xml version="1.0" encoding="UTF-8" standalone="no"?>
<!DOCTYPE svg PUBLIC "-//W3C//DTD SVG 1.1//EN"
 "http://www.w3.org/Graphics/SVG/1.1/DTD/svg11.dtd">
<!-- Generated by graphviz version 9.0.0 (20230911.1827)
 -->
<!-- Title: G Pages: 1 -->
<svg width="1913pt" height="1052pt"
 viewBox="0.00 0.00 1913.11 1052.00" xmlns="http://www.w3.org/2000/svg" xmlns:xlink="http://www.w3.org/1999/xlink">
<g id="graph0" class="graph" transform="scale(1 1) rotate(0) translate(4 1048)">
<title>G</title>
<polygon fill="white" stroke="none" points="-4,4 -4,-1048 1909.11,-1048 1909.11,4 -4,4"/>
<!-- n8552895735072137 -->
<g id="node1" class="node">
<title>n8552895735072137</title>
<ellipse fill="#86bafd" stroke="black" cx="1052.77" cy="-1008" rx="36" ry="36"/>
<text text-anchor="middle" x="1052.77" y="-1004.5" font-family="Helvetica,sans-Serif" font-size="10.00">RAIZ</text>
</g>
<!-- n3424972974846577 -->
<g id="node2" class="node">
<title>n3424972974846577</title>
<ellipse fill="#86bafd" stroke="black" cx="1052.77" cy="-900" rx="36" ry="36"/>
<text text-anchor="middle" x="1052.77" y="-896.5" font-family="Helvetica,sans-Serif" font-size="10.00">SENTENCIAS</text>
</g>
<!-- n8552895735072137&#45;&gt;n3424972974846577 -->
<g id="edge1" class="edge">
<title>n8552895735072137&#45;&gt;n3424972974846577</title>
<path fill="none" stroke="black" d="M1052.77,-971.7C1052.77,-963.93 1052.77,-955.57 1052.77,-947.43"/>
<polygon fill="black" stroke="black" points="1056.27,-947.66 1052.77,-937.66 1049.27,-947.66 1056.27,-947.66"/>
</g>
<!-- n8657201482078274 -->
<g id="node3" class="node">
<title>n8657201482078274</title>
<ellipse fill="#86bafd" stroke="black" cx="433.77" cy="-792" rx="36" ry="36"/>
<text text-anchor="middle" x="433.77" y="-788.5" font-family="Helvetica,sans-Serif" font-size="10.00">SENTENCIA</text>
</g>
<!-- n3424972974846577&#45;&gt;n8657201482078274 -->
<g id="edge2" class="edge">
<title>n3424972974846577&#45;&gt;n8657201482078274</title>
<path fill="none" stroke="black" d="M1016.53,-897.16C929.9,-892.12 704.51,-875.17 522.77,-828 507.54,-824.04 491.37,-818.22 477.06,-812.45"/>
<polygon fill="black" stroke="black" points="478.51,-809.26 467.93,-808.66 475.82,-815.72 478.51,-809.26"/>
</g>
<!-- n2683935628914464 -->
<g id="node16" class="node">
<title>n2683935628914464</title>
<ellipse fill="#86bafd" stroke="black" cx="567.77" cy="-792" rx="36" ry="36"/>
<text text-anchor="middle" x="567.77" y="-788.5" font-family="Helvetica,sans-Serif" font-size="10.00">SENTENCIA</text>
</g>
<!-- n3424972974846577&#45;&gt;n2683935628914464 -->
<g id="edge15" class="edge">
<title>n3424972974846577&#45;&gt;n2683935628914464</title>
<path fill="none" stroke="black" d="M1016.46,-897.04C942.12,-892.14 768.03,-876.07 630.77,-828 623.15,-825.33 615.36,-821.78 607.98,-817.96"/>
<polygon fill="black" stroke="black" points="609.66,-814.89 599.2,-813.18 606.31,-821.04 609.66,-814.89"/>
</g>
<!-- n5127952755077471 -->
<g id="node23" class="node">
<title>n5127952755077471</title>
<ellipse fill="#86bafd" stroke="black" cx="675.77" cy="-792" rx="36" ry="36"/>
<text text-anchor="middle" x="675.77" y="-788.5" font-family="Helvetica,sans-Serif" font-size="10.00">SENTENCIA</text>
</g>
<!-- n3424972974846577&#45;&gt;n5127952755077471 -->
<g id="edge22" class="edge">
<title>n3424972974846577&#45;&gt;n5127952755077471</title>
<path fill="none" stroke="black" d="M1016.97,-894.3C957.64,-885.76 835.89,-865.08 738.77,-828 731.23,-825.12 723.48,-821.46 716.11,-817.61"/>
<polygon fill="black" stroke="black" points="717.79,-814.54 707.34,-812.81 714.43,-820.68 717.79,-814.54"/>
</g>
<!-- n6509724112082362 -->
<g id="node25" class="node">
<title>n6509724112082362</title>
<ellipse fill="#86bafd" stroke="black" cx="783.77" cy="-792" rx="36" ry="36"/>
<text text-anchor="middle" x="783.77" y="-788.5" font-family="Helvetica,sans-Serif" font-size="10.00">SENTENCIA</text>
</g>
<!-- n3424972974846577&#45;&gt;n6509724112082362 -->
<g id="edge24" class="edge">
<title>n3424972974846577&#45;&gt;n6509724112082362</title>
<path fill="none" stroke="black" d="M1018.17,-889.1C976.66,-876.77 905.33,-854.12 846.77,-828 839.31,-824.67 831.56,-820.76 824.14,-816.79"/>
<polygon fill="black" stroke="black" points="826.08,-813.86 815.63,-812.1 822.7,-819.99 826.08,-813.86"/>
</g>
<!-- n2762507609535371 -->
<g id="node27" class="node">
<title>n2762507609535371</title>
<ellipse fill="#86bafd" stroke="black" cx="891.77" cy="-792" rx="36" ry="36"/>
<text text-anchor="middle" x="891.77" y="-788.5" font-family="Helvetica,sans-Serif" font-size="10.00">SENTENCIA</text>
</g>
<!-- n3424972974846577&#45;&gt;n2762507609535371 -->
<g id="edge26" class="edge">
<title>n3424972974846577&#45;&gt;n2762507609535371</title>
<path fill="none" stroke="black" d="M1022.87,-879.31C997.08,-862.33 959.65,-837.69 931.38,-819.07"/>
<polygon fill="black" stroke="black" points="933.33,-816.17 923.06,-813.6 929.48,-822.02 933.33,-816.17"/>
</g>
<!-- n6931249221916951 -->
<g id="node29" class="node">
<title>n6931249221916951</title>
<ellipse fill="#86bafd" stroke="black" cx="999.77" cy="-792" rx="36" ry="36"/>
<text text-anchor="middle" x="999.77" y="-788.5" font-family="Helvetica,sans-Serif" font-size="10.00">SENTENCIA</text>
</g>
<!-- n3424972974846577&#45;&gt;n6931249221916951 -->
<g id="edge28" class="edge">
<title>n3424972974846577&#45;&gt;n6931249221916951</title>
<path fill="none" stroke="black" d="M1036.87,-867.2C1031.79,-857.03 1026.08,-845.62 1020.7,-834.85"/>
<polygon fill="black" stroke="black" points="1023.94,-833.51 1016.34,-826.13 1017.68,-836.64 1023.94,-833.51"/>
</g>
<!-- n7809972319595470 -->
<g id="node31" class="node">
<title>n7809972319595470</title>
<ellipse fill="#86bafd" stroke="black" cx="1106.77" cy="-792" rx="36" ry="36"/>
<text text-anchor="middle" x="1106.77" y="-788.5" font-family="Helvetica,sans-Serif" font-size="10.00">SENTENCIA</text>
</g>
<!-- n3424972974846577&#45;&gt;n7809972319595470 -->
<g id="edge30" class="edge">
<title>n3424972974846577&#45;&gt;n7809972319595470</title>
<path fill="none" stroke="black" d="M1068.83,-867.48C1074.06,-857.22 1079.95,-845.66 1085.5,-834.76"/>
<polygon fill="black" stroke="black" points="1088.58,-836.43 1090,-825.93 1082.34,-833.25 1088.58,-836.43"/>
</g>
<!-- n2544522413541308 -->
<g id="node33" class="node">
<title>n2544522413541308</title>
<ellipse fill="#86bafd" stroke="black" cx="1214.77" cy="-792" rx="36" ry="36"/>
<text text-anchor="middle" x="1214.77" y="-788.5" font-family="Helvetica,sans-Serif" font-size="10.00">SENTENCIA</text>
</g>
<!-- n3424972974846577&#45;&gt;n2544522413541308 -->
<g id="edge32" class="edge">
<title>n3424972974846577&#45;&gt;n2544522413541308</title>
<path fill="none" stroke="black" d="M1082.49,-879.56C1108.59,-862.48 1146.75,-837.51 1175.39,-818.77"/>
<polygon fill="black" stroke="black" points="1176.98,-821.91 1183.43,-813.51 1173.15,-816.05 1176.98,-821.91"/>
</g>
<!-- n714837396641114 -->
<g id="node35" class="node">
<title>n714837396641114</title>
<ellipse fill="#86bafd" stroke="black" cx="1322.77" cy="-792" rx="36" ry="36"/>
<text text-anchor="middle" x="1322.77" y="-788.5" font-family="Helvetica,sans-Serif" font-size="10.00">SENTENCIA</text>
</g>
<!-- n3424972974846577&#45;&gt;n714837396641114 -->
<g id="edge34" class="edge">
<title>n3424972974846577&#45;&gt;n714837396641114</title>
<path fill="none" stroke="black" d="M1087.55,-889.13C1129.27,-876.82 1200.94,-854.19 1259.77,-828 1267.24,-824.68 1275,-820.77 1282.41,-816.8"/>
<polygon fill="black" stroke="black" points="1283.85,-820 1290.92,-812.11 1280.47,-813.87 1283.85,-820"/>
</g>
<!-- n4100454409255366 -->
<g id="node37" class="node">
<title>n4100454409255366</title>
<ellipse fill="#86bafd" stroke="black" cx="1430.77" cy="-792" rx="36" ry="36"/>
<text text-anchor="middle" x="1430.77" y="-788.5" font-family="Helvetica,sans-Serif" font-size="10.00">SENTENCIA</text>
</g>
<!-- n3424972974846577&#45;&gt;n4100454409255366 -->
<g id="edge36" class="edge">
<title>n3424972974846577&#45;&gt;n4100454409255366</title>
<path fill="none" stroke="black" d="M1088.7,-894.31C1148.21,-885.8 1270.35,-865.16 1367.77,-828 1375.32,-825.12 1383.07,-821.47 1390.44,-817.61"/>
<polygon fill="black" stroke="black" points="1392.12,-820.69 1399.21,-812.82 1388.76,-814.54 1392.12,-820.69"/>
</g>
<!-- n2977829703505037 -->
<g id="node39" class="node">
<title>n2977829703505037</title>
<ellipse fill="#86bafd" stroke="black" cx="1538.77" cy="-792" rx="36" ry="36"/>
<text text-anchor="middle" x="1538.77" y="-788.5" font-family="Helvetica,sans-Serif" font-size="10.00">SENTENCIA</text>
</g>
<!-- n3424972974846577&#45;&gt;n2977829703505037 -->
<g id="edge38" class="edge">
<title>n3424972974846577&#45;&gt;n2977829703505037</title>
<path fill="none" stroke="black" d="M1088.89,-897.07C1163.25,-892.22 1338.02,-876.22 1475.77,-828 1483.4,-825.33 1491.19,-821.78 1498.57,-817.97"/>
<polygon fill="black" stroke="black" points="1500.24,-821.04 1507.35,-813.18 1496.89,-814.89 1500.24,-821.04"/>
</g>
<!-- n2143120414952255 -->
<g id="node41" class="node">
<title>n2143120414952255</title>
<ellipse fill="#86bafd" stroke="black" cx="1646.77" cy="-792" rx="36" ry="36"/>
<text text-anchor="middle" x="1646.77" y="-788.5" font-family="Helvetica,sans-Serif" font-size="10.00">SENTENCIA</text>
</g>
<!-- n3424972974846577&#45;&gt;n2143120414952255 -->
<g id="edge40" class="edge">
<title>n3424972974846577&#45;&gt;n2143120414952255</title>
<path fill="none" stroke="black" d="M1089.23,-898.76C1176.8,-897.19 1405,-887.25 1583.77,-828 1591.44,-825.46 1599.25,-821.97 1606.64,-818.18"/>
<polygon fill="black" stroke="black" points="1608.31,-821.26 1615.42,-813.4 1604.96,-815.11 1608.31,-821.26"/>
</g>
<!-- n7131342292353416 -->
<g id="node4" class="node">
<title>n7131342292353416</title>
<ellipse fill="#86bafd" stroke="black" cx="379.77" cy="-684" rx="36" ry="36"/>
<text text-anchor="middle" x="379.77" y="-680.5" font-family="Helvetica,sans-Serif" font-size="10.00">CREATE TABLE</text>
</g>
<!-- n8657201482078274&#45;&gt;n7131342292353416 -->
<g id="edge3" class="edge">
<title>n8657201482078274&#45;&gt;n7131342292353416</title>
<path fill="none" stroke="black" d="M417.72,-759.48C412.49,-749.22 406.6,-737.66 401.05,-726.76"/>
<polygon fill="black" stroke="black" points="404.21,-725.25 396.55,-717.93 397.97,-728.43 404.21,-725.25"/>
</g>
<!-- n8085773643226672 -->
<g id="node5" class="node">
<title>n8085773643226672</title>
<ellipse fill="#86bafd" stroke="black" cx="271.77" cy="-576" rx="36" ry="36"/>
<text text-anchor="middle" x="271.77" y="-572.5" font-family="Helvetica,sans-Serif" font-size="10.00">IDS</text>
</g>
<!-- n7131342292353416&#45;&gt;n8085773643226672 -->
<g id="edge4" class="edge">
<title>n7131342292353416&#45;&gt;n8085773643226672</title>
<path fill="none" stroke="black" d="M354.45,-658.15C339.8,-643.77 321.18,-625.49 305.32,-609.92"/>
<polygon fill="black" stroke="black" points="307.98,-607.63 298.39,-603.12 303.08,-612.63 307.98,-607.63"/>
</g>
<!-- n7290708879637487 -->
<g id="node6" class="node">
<title>n7290708879637487</title>
<ellipse fill="#86bafd" stroke="black" cx="42.77" cy="-468" rx="36" ry="36"/>
<text text-anchor="middle" x="42.77" y="-464.5" font-family="Helvetica,sans-Serif" font-size="10.00">DECLARACION</text>
</g>
<!-- n8085773643226672&#45;&gt;n7290708879637487 -->
<g id="edge5" class="edge">
<title>n8085773643226672&#45;&gt;n7290708879637487</title>
<path fill="none" stroke="black" d="M238.25,-561.85C204.4,-548.29 150.81,-526.07 105.77,-504 98.6,-500.48 91.08,-496.54 83.83,-492.61"/>
<polygon fill="black" stroke="black" points="85.61,-489.59 75.17,-487.82 82.23,-495.72 85.61,-489.59"/>
</g>
<!-- n36036144504508 -->
<g id="node8" class="node">
<title>n36036144504508</title>
<ellipse fill="#86bafd" stroke="black" cx="150.77" cy="-468" rx="36" ry="36"/>
<text text-anchor="middle" x="150.77" y="-464.5" font-family="Helvetica,sans-Serif" font-size="10.00">DECLARACION</text>
</g>
<!-- n8085773643226672&#45;&gt;n36036144504508 -->
<g id="edge7" class="edge">
<title>n8085773643226672&#45;&gt;n36036144504508</title>
<path fill="none" stroke="black" d="M244.92,-551.48C227.61,-536.31 204.91,-516.43 186.14,-499.98"/>
<polygon fill="black" stroke="black" points="188.52,-497.41 178.69,-493.46 183.91,-502.68 188.52,-497.41"/>
</g>
<!-- n1997418925343989 -->
<g id="node10" class="node">
<title>n1997418925343989</title>
<ellipse fill="#86bafd" stroke="black" cx="258.77" cy="-468" rx="36" ry="36"/>
<text text-anchor="middle" x="258.77" y="-464.5" font-family="Helvetica,sans-Serif" font-size="10.00">DECLARACION</text>
</g>
<!-- n8085773643226672&#45;&gt;n1997418925343989 -->
<g id="edge9" class="edge">
<title>n8085773643226672&#45;&gt;n1997418925343989</title>
<path fill="none" stroke="black" d="M267.48,-540C266.51,-532.04 265.45,-523.46 264.43,-515.12"/>
<polygon fill="black" stroke="black" points="267.94,-514.97 263.25,-505.47 260.99,-515.82 267.94,-514.97"/>
</g>
<!-- n5677139592434448 -->
<g id="node12" class="node">
<title>n5677139592434448</title>
<ellipse fill="#86bafd" stroke="black" cx="366.77" cy="-468" rx="36" ry="36"/>
<text text-anchor="middle" x="366.77" y="-464.5" font-family="Helvetica,sans-Serif" font-size="10.00">DECLARACION</text>
</g>
<!-- n8085773643226672&#45;&gt;n5677139592434448 -->
<g id="edge11" class="edge">
<title>n8085773643226672&#45;&gt;n5677139592434448</title>
<path fill="none" stroke="black" d="M295.5,-548.53C307.63,-534.99 322.55,-518.35 335.59,-503.79"/>
<polygon fill="black" stroke="black" points="337.94,-506.41 342.01,-496.63 332.73,-501.74 337.94,-506.41"/>
</g>
<!-- n7802542482198413 -->
<g id="node14" class="node">
<title>n7802542482198413</title>
<ellipse fill="#86bafd" stroke="black" cx="474.77" cy="-468" rx="36" ry="36"/>
<text text-anchor="middle" x="474.77" y="-464.5" font-family="Helvetica,sans-Serif" font-size="10.00">DECLARACION</text>
</g>
<!-- n8085773643226672&#45;&gt;n7802542482198413 -->
<g id="edge13" class="edge">
<title>n8085773643226672&#45;&gt;n7802542482198413</title>
<path fill="none" stroke="black" d="M303.92,-559.13C332.41,-544.96 375.07,-523.49 411.77,-504 418.92,-500.21 426.47,-496.1 433.76,-492.08"/>
<polygon fill="black" stroke="black" points="435.12,-495.32 442.17,-487.41 431.73,-489.2 435.12,-495.32"/>
</g>
<!-- n1999326130463898 -->
<g id="node7" class="node">
<title>n1999326130463898</title>
<ellipse fill="#86bafd" stroke="black" cx="42.77" cy="-360" rx="36" ry="36"/>
<text text-anchor="middle" x="42.77" y="-356.5" font-family="Helvetica,sans-Serif" font-size="10.00">id</text>
</g>
<!-- n7290708879637487&#45;&gt;n1999326130463898 -->
<g id="edge6" class="edge">
<title>n7290708879637487&#45;&gt;n1999326130463898</title>
<path fill="none" stroke="black" d="M42.77,-431.7C42.77,-423.93 42.77,-415.57 42.77,-407.43"/>
<polygon fill="black" stroke="black" points="46.27,-407.66 42.77,-397.66 39.27,-407.66 46.27,-407.66"/>
</g>
<!-- n3565454041333307 -->
<g id="node9" class="node">
<title>n3565454041333307</title>
<ellipse fill="#86bafd" stroke="black" cx="150.77" cy="-360" rx="36" ry="36"/>
<text text-anchor="middle" x="150.77" y="-356.5" font-family="Helvetica,sans-Serif" font-size="10.00">edad</text>
</g>
<!-- n36036144504508&#45;&gt;n3565454041333307 -->
<g id="edge8" class="edge">
<title>n36036144504508&#45;&gt;n3565454041333307</title>
<path fill="none" stroke="black" d="M150.77,-431.7C150.77,-423.93 150.77,-415.57 150.77,-407.43"/>
<polygon fill="black" stroke="black" points="154.27,-407.66 150.77,-397.66 147.27,-407.66 154.27,-407.66"/>
</g>
<!-- n2997052658123399 -->
<g id="node11" class="node">
<title>n2997052658123399</title>
<ellipse fill="#86bafd" stroke="black" cx="258.77" cy="-360" rx="36" ry="36"/>
<text text-anchor="middle" x="258.77" y="-356.5" font-family="Helvetica,sans-Serif" font-size="10.00">nombre</text>
</g>
<!-- n1997418925343989&#45;&gt;n2997052658123399 -->
<g id="edge10" class="edge">
<title>n1997418925343989&#45;&gt;n2997052658123399</title>
<path fill="none" stroke="black" d="M258.77,-431.7C258.77,-423.93 258.77,-415.57 258.77,-407.43"/>
<polygon fill="black" stroke="black" points="262.27,-407.66 258.77,-397.66 255.27,-407.66 262.27,-407.66"/>
</g>
<!-- n2272865210478320 -->
<g id="node13" class="node">
<title>n2272865210478320</title>
<ellipse fill="#86bafd" stroke="black" cx="366.77" cy="-360" rx="36" ry="36"/>
<text text-anchor="middle" x="366.77" y="-356.5" font-family="Helvetica,sans-Serif" font-size="10.00">cumple</text>
</g>
<!-- n5677139592434448&#45;&gt;n2272865210478320 -->
<g id="edge12" class="edge">
<title>n5677139592434448&#45;&gt;n2272865210478320</title>
<path fill="none" stroke="black" d="M366.77,-431.7C366.77,-423.93 366.77,-415.57 366.77,-407.43"/>
<polygon fill="black" stroke="black" points="370.27,-407.66 366.77,-397.66 363.27,-407.66 370.27,-407.66"/>
</g>
<!-- n8588568196633899 -->
<g id="node15" class="node">
<title>n8588568196633899</title>
<ellipse fill="#86bafd" stroke="black" cx="474.77" cy="-360" rx="36" ry="36"/>
<text text-anchor="middle" x="474.77" y="-356.5" font-family="Helvetica,sans-Serif" font-size="10.00">genero</text>
</g>
<!-- n7802542482198413&#45;&gt;n8588568196633899 -->
<g id="edge14" class="edge">
<title>n7802542482198413&#45;&gt;n8588568196633899</title>
<path fill="none" stroke="black" d="M474.77,-431.7C474.77,-423.93 474.77,-415.57 474.77,-407.43"/>
<polygon fill="black" stroke="black" points="478.27,-407.66 474.77,-397.66 471.27,-407.66 478.27,-407.66"/>
</g>
<!-- n1833024681991024 -->
<g id="node17" class="node">
<title>n1833024681991024</title>
<ellipse fill="#86bafd" stroke="black" cx="567.77" cy="-684" rx="36" ry="36"/>
<text text-anchor="middle" x="567.77" y="-680.5" font-family="Helvetica,sans-Serif" font-size="10.00">CREATE TABLE</text>
</g>
<!-- n2683935628914464&#45;&gt;n1833024681991024 -->
<g id="edge16" class="edge">
<title>n2683935628914464&#45;&gt;n1833024681991024</title>
<path fill="none" stroke="black" d="M567.77,-755.7C567.77,-747.93 567.77,-739.57 567.77,-731.43"/>
<polygon fill="black" stroke="black" points="571.27,-731.66 567.77,-721.66 564.27,-731.66 571.27,-731.66"/>
</g>
<!-- n5367718861148857 -->
<g id="node18" class="node">
<title>n5367718861148857</title>
<ellipse fill="#86bafd" stroke="black" cx="582.77" cy="-576" rx="36" ry="36"/>
<text text-anchor="middle" x="582.77" y="-572.5" font-family="Helvetica,sans-Serif" font-size="10.00">IDS</text>
</g>
<!-- n1833024681991024&#45;&gt;n5367718861148857 -->
<g id="edge17" class="edge">
<title>n1833024681991024&#45;&gt;n5367718861148857</title>
<path fill="none" stroke="black" d="M572.73,-648C573.85,-640.04 575.07,-631.46 576.25,-623.12"/>
<polygon fill="black" stroke="black" points="579.68,-623.86 577.61,-613.46 572.75,-622.87 579.68,-623.86"/>
</g>
<!-- n5314407088836988 -->
<g id="node19" class="node">
<title>n5314407088836988</title>
<ellipse fill="#86bafd" stroke="black" cx="582.77" cy="-468" rx="36" ry="36"/>
<text text-anchor="middle" x="582.77" y="-464.5" font-family="Helvetica,sans-Serif" font-size="10.00">DECLARACION</text>
</g>
<!-- n5367718861148857&#45;&gt;n5314407088836988 -->
<g id="edge18" class="edge">
<title>n5367718861148857&#45;&gt;n5314407088836988</title>
<path fill="none" stroke="black" d="M582.77,-539.7C582.77,-531.93 582.77,-523.57 582.77,-515.43"/>
<polygon fill="black" stroke="black" points="586.27,-515.66 582.77,-505.66 579.27,-515.66 586.27,-515.66"/>
</g>
<!-- n6022843637560888 -->
<g id="node21" class="node">
<title>n6022843637560888</title>
<ellipse fill="#86bafd" stroke="black" cx="689.77" cy="-468" rx="36" ry="36"/>
<text text-anchor="middle" x="689.77" y="-464.5" font-family="Helvetica,sans-Serif" font-size="10.00">DECLARACION</text>
</g>
<!-- n5367718861148857&#45;&gt;n6022843637560888 -->
<g id="edge20" class="edge">
<title>n5367718861148857&#45;&gt;n6022843637560888</title>
<path fill="none" stroke="black" d="M608.13,-549.88C622.66,-535.49 641.05,-517.27 656.7,-501.77"/>
<polygon fill="black" stroke="black" points="658.88,-504.53 663.52,-495.01 653.96,-499.56 658.88,-504.53"/>
</g>
<!-- n1731727095373327 -->
<g id="node20" class="node">
<title>n1731727095373327</title>
<ellipse fill="#86bafd" stroke="black" cx="582.77" cy="-360" rx="36" ry="36"/>
<text text-anchor="middle" x="582.77" y="-356.5" font-family="Helvetica,sans-Serif" font-size="10.00">cancion</text>
</g>
<!-- n5314407088836988&#45;&gt;n1731727095373327 -->
<g id="edge19" class="edge">
<title>n5314407088836988&#45;&gt;n1731727095373327</title>
<path fill="none" stroke="black" d="M582.77,-431.7C582.77,-423.93 582.77,-415.57 582.77,-407.43"/>
<polygon fill="black" stroke="black" points="586.27,-407.66 582.77,-397.66 579.27,-407.66 586.27,-407.66"/>
</g>
<!-- n3194573696089597 -->
<g id="node22" class="node">
<title>n3194573696089597</title>
<ellipse fill="#86bafd" stroke="black" cx="689.77" cy="-360" rx="36" ry="36"/>
<text text-anchor="middle" x="689.77" y="-356.5" font-family="Helvetica,sans-Serif" font-size="10.00">inauracion</text>
</g>
<!-- n6022843637560888&#45;&gt;n3194573696089597 -->
<g id="edge21" class="edge">
<title>n6022843637560888&#45;&gt;n3194573696089597</title>
<path fill="none" stroke="black" d="M689.77,-431.7C689.77,-423.93 689.77,-415.57 689.77,-407.43"/>
<polygon fill="black" stroke="black" points="693.27,-407.66 689.77,-397.66 686.27,-407.66 693.27,-407.66"/>
</g>
<!-- n231306634653969 -->
<g id="node24" class="node">
<title>n231306634653969</title>
<ellipse fill="#86bafd" stroke="black" cx="675.77" cy="-684" rx="36" ry="36"/>
<text text-anchor="middle" x="675.77" y="-680.5" font-family="Helvetica,sans-Serif" font-size="10.00">INSERTTABLE</text>
</g>
<!-- n5127952755077471&#45;&gt;n231306634653969 -->
<g id="edge23" class="edge">
<title>n5127952755077471&#45;&gt;n231306634653969</title>
<path fill="none" stroke="black" d="M675.77,-755.7C675.77,-747.93 675.77,-739.57 675.77,-731.43"/>
<polygon fill="black" stroke="black" points="679.27,-731.66 675.77,-721.66 672.27,-731.66 679.27,-731.66"/>
</g>
<!-- n162859613932887 -->
<g id="node26" class="node">
<title>n162859613932887</title>
<ellipse fill="#86bafd" stroke="black" cx="783.77" cy="-684" rx="36" ry="36"/>
<text text-anchor="middle" x="783.77" y="-680.5" font-family="Helvetica,sans-Serif" font-size="10.00">INSERTTABLE</text>
</g>
<!-- n6509724112082362&#45;&gt;n162859613932887 -->
<g id="edge25" class="edge">
<title>n6509724112082362&#45;&gt;n162859613932887</title>
<path fill="none" stroke="black" d="M783.77,-755.7C783.77,-747.93 783.77,-739.57 783.77,-731.43"/>
<polygon fill="black" stroke="black" points="787.27,-731.66 783.77,-721.66 780.27,-731.66 787.27,-731.66"/>
</g>
<!-- n2666862439088779 -->
<g id="node28" class="node">
<title>n2666862439088779</title>
<ellipse fill="#86bafd" stroke="black" cx="891.77" cy="-684" rx="36" ry="36"/>
<text text-anchor="middle" x="891.77" y="-680.5" font-family="Helvetica,sans-Serif" font-size="10.00">INSERTTABLE</text>
</g>
<!-- n2762507609535371&#45;&gt;n2666862439088779 -->
<g id="edge27" class="edge">
<title>n2762507609535371&#45;&gt;n2666862439088779</title>
<path fill="none" stroke="black" d="M891.77,-755.7C891.77,-747.93 891.77,-739.57 891.77,-731.43"/>
<polygon fill="black" stroke="black" points="895.27,-731.66 891.77,-721.66 888.27,-731.66 895.27,-731.66"/>
</g>
<!-- n1626113587660860 -->
<g id="node30" class="node">
<title>n1626113587660860</title>
<ellipse fill="#86bafd" stroke="black" cx="999.77" cy="-684" rx="36" ry="36"/>
<text text-anchor="middle" x="999.77" y="-680.5" font-family="Helvetica,sans-Serif" font-size="10.00">INSERTTABLE</text>
</g>
<!-- n6931249221916951&#45;&gt;n1626113587660860 -->
<g id="edge29" class="edge">
<title>n6931249221916951&#45;&gt;n1626113587660860</title>
<path fill="none" stroke="black" d="M999.77,-755.7C999.77,-747.93 999.77,-739.57 999.77,-731.43"/>
<polygon fill="black" stroke="black" points="1003.27,-731.66 999.77,-721.66 996.27,-731.66 1003.27,-731.66"/>
</g>
<!-- n4122930533096434 -->
<g id="node32" class="node">
<title>n4122930533096434</title>
<ellipse fill="#86bafd" stroke="black" cx="1106.77" cy="-684" rx="36" ry="36"/>
<text text-anchor="middle" x="1106.77" y="-680.5" font-family="Helvetica,sans-Serif" font-size="10.00">INSERTTABLE</text>
</g>
<!-- n7809972319595470&#45;&gt;n4122930533096434 -->
<g id="edge31" class="edge">
<title>n7809972319595470&#45;&gt;n4122930533096434</title>
<path fill="none" stroke="black" d="M1106.77,-755.7C1106.77,-747.93 1106.77,-739.57 1106.77,-731.43"/>
<polygon fill="black" stroke="black" points="1110.27,-731.66 1106.77,-721.66 1103.27,-731.66 1110.27,-731.66"/>
</g>
<!-- n1444902558152485 -->
<g id="node34" class="node">
<title>n1444902558152485</title>
<ellipse fill="#86bafd" stroke="black" cx="1214.77" cy="-684" rx="36" ry="36"/>
<text text-anchor="middle" x="1214.77" y="-680.5" font-family="Helvetica,sans-Serif" font-size="10.00">UPDATE TABLE</text>
</g>
<!-- n2544522413541308&#45;&gt;n1444902558152485 -->
<g id="edge33" class="edge">
<title>n2544522413541308&#45;&gt;n1444902558152485</title>
<path fill="none" stroke="black" d="M1214.77,-755.7C1214.77,-747.93 1214.77,-739.57 1214.77,-731.43"/>
<polygon fill="black" stroke="black" points="1218.27,-731.66 1214.77,-721.66 1211.27,-731.66 1218.27,-731.66"/>
</g>
<!-- n417776856253043 -->
<g id="node36" class="node">
<title>n417776856253043</title>
<ellipse fill="#86bafd" stroke="black" cx="1322.77" cy="-684" rx="36" ry="36"/>
<text text-anchor="middle" x="1322.77" y="-680.5" font-family="Helvetica,sans-Serif" font-size="10.00">SELECT TABLE</text>
</g>
<!-- n714837396641114&#45;&gt;n417776856253043 -->
<g id="edge35" class="edge">
<title>n714837396641114&#45;&gt;n417776856253043</title>
<path fill="none" stroke="black" d="M1322.77,-755.7C1322.77,-747.93 1322.77,-739.57 1322.77,-731.43"/>
<polygon fill="black" stroke="black" points="1326.27,-731.66 1322.77,-721.66 1319.27,-731.66 1326.27,-731.66"/>
</g>
<!-- n1566452668424366 -->
<g id="node38" class="node">
<title>n1566452668424366</title>
<ellipse fill="#86bafd" stroke="black" cx="1430.77" cy="-684" rx="36" ry="36"/>
<text text-anchor="middle" x="1430.77" y="-680.5" font-family="Helvetica,sans-Serif" font-size="10.00">DELETE TABLE</text>
</g>
<!-- n4100454409255366&#45;&gt;n1566452668424366 -->
<g id="edge37" class="edge">
<title>n4100454409255366&#45;&gt;n1566452668424366</title>
<path fill="none" stroke="black" d="M1430.77,-755.7C1430.77,-747.93 1430.77,-739.57 1430.77,-731.43"/>
<polygon fill="black" stroke="black" points="1434.27,-731.66 1430.77,-721.66 1427.27,-731.66 1434.27,-731.66"/>
</g>
<!-- n6213645837029485 -->
<g id="node40" class="node">
<title>n6213645837029485</title>
<ellipse fill="#86bafd" stroke="black" cx="1538.77" cy="-684" rx="36" ry="36"/>
<text text-anchor="middle" x="1538.77" y="-680.5" font-family="Helvetica,sans-Serif" font-size="10.00">SELECT TABLE</text>
</g>
<!-- n2977829703505037&#45;&gt;n6213645837029485 -->
<g id="edge39" class="edge">
<title>n2977829703505037&#45;&gt;n6213645837029485</title>
<path fill="none" stroke="black" d="M1538.77,-755.7C1538.77,-747.93 1538.77,-739.57 1538.77,-731.43"/>
<polygon fill="black" stroke="black" points="1542.27,-731.66 1538.77,-721.66 1535.27,-731.66 1542.27,-731.66"/>
</g>
<!-- n5456438395329063 -->
<g id="node42" class="node">
<title>n5456438395329063</title>
<ellipse fill="#86bafd" stroke="black" cx="1646.77" cy="-684" rx="36" ry="36"/>
<text text-anchor="middle" x="1646.77" y="-680.5" font-family="Helvetica,sans-Serif" font-size="10.00">BEGINEND</text>
</g>
<!-- n2143120414952255&#45;&gt;n5456438395329063 -->
<g id="edge41" class="edge">
<title>n2143120414952255&#45;&gt;n5456438395329063</title>
<path fill="none" stroke="black" d="M1646.77,-755.7C1646.77,-747.93 1646.77,-739.57 1646.77,-731.43"/>
<polygon fill="black" stroke="black" points="1650.27,-731.66 1646.77,-721.66 1643.27,-731.66 1650.27,-731.66"/>
</g>
<!-- n1275994543846926 -->
<g id="node43" class="node">
<title>n1275994543846926</title>
<ellipse fill="#86bafd" stroke="black" cx="1646.77" cy="-576" rx="36" ry="36"/>
<text text-anchor="middle" x="1646.77" y="-572.5" font-family="Helvetica,sans-Serif" font-size="10.00">INSTRUCCIONES</text>
</g>
<!-- n5456438395329063&#45;&gt;n1275994543846926 -->
<g id="edge42" class="edge">
<title>n5456438395329063&#45;&gt;n1275994543846926</title>
<path fill="none" stroke="black" d="M1646.77,-647.7C1646.77,-639.93 1646.77,-631.57 1646.77,-623.43"/>
<polygon fill="black" stroke="black" points="1650.27,-623.66 1646.77,-613.66 1643.27,-623.66 1650.27,-623.66"/>
</g>
<!-- n4095673099470793 -->
<g id="node44" class="node">
<title>n4095673099470793</title>
<ellipse fill="#86bafd" stroke="black" cx="1523.77" cy="-468" rx="36" ry="36"/>
<text text-anchor="middle" x="1523.77" y="-464.5" font-family="Helvetica,sans-Serif" font-size="10.00">INSTRUCCION</text>
</g>
<!-- n1275994543846926&#45;&gt;n4095673099470793 -->
<g id="edge43" class="edge">
<title>n1275994543846926&#45;&gt;n4095673099470793</title>
<path fill="none" stroke="black" d="M1619.78,-551.74C1602,-536.41 1578.52,-516.18 1559.24,-499.56"/>
<polygon fill="black" stroke="black" points="1561.71,-497.07 1551.85,-493.2 1557.14,-502.38 1561.71,-497.07"/>
</g>
<!-- n624418554326015 -->
<g id="node49" class="node">
<title>n624418554326015</title>
<ellipse fill="#86bafd" stroke="black" cx="1646.77" cy="-468" rx="36" ry="36"/>
<text text-anchor="middle" x="1646.77" y="-464.5" font-family="Helvetica,sans-Serif" font-size="10.00">INSTRUCCION</text>
</g>
<!-- n1275994543846926&#45;&gt;n624418554326015 -->
<g id="edge48" class="edge">
<title>n1275994543846926&#45;&gt;n624418554326015</title>
<path fill="none" stroke="black" d="M1646.77,-539.7C1646.77,-531.93 1646.77,-523.57 1646.77,-515.43"/>
<polygon fill="black" stroke="black" points="1650.27,-515.66 1646.77,-505.66 1643.27,-515.66 1650.27,-515.66"/>
</g>
<!-- n491211434096242 -->
<g id="node56" class="node">
<title>n491211434096242</title>
<ellipse fill="#86bafd" stroke="black" cx="1753.77" cy="-468" rx="36" ry="36"/>
<text text-anchor="middle" x="1753.77" y="-464.5" font-family="Helvetica,sans-Serif" font-size="10.00">INSTRUCCION</text>
</g>
<!-- n1275994543846926&#45;&gt;n491211434096242 -->
<g id="edge55" class="edge">
<title>n1275994543846926&#45;&gt;n491211434096242</title>
<path fill="none" stroke="black" d="M1672.13,-549.88C1686.66,-535.49 1705.05,-517.27 1720.7,-501.77"/>
<polygon fill="black" stroke="black" points="1722.88,-504.53 1727.52,-495.01 1717.96,-499.56 1722.88,-504.53"/>
</g>
<!-- n8941895205696458 -->
<g id="node45" class="node">
<title>n8941895205696458</title>
<ellipse fill="#86bafd" stroke="black" cx="1497.77" cy="-360" rx="36" ry="36"/>
<text text-anchor="middle" x="1497.77" y="-356.5" font-family="Helvetica,sans-Serif" font-size="10.00">DECLARACIONES</text>
</g>
<!-- n4095673099470793&#45;&gt;n8941895205696458 -->
<g id="edge44" class="edge">
<title>n4095673099470793&#45;&gt;n8941895205696458</title>
<path fill="none" stroke="black" d="M1515.33,-432.58C1513.27,-424.17 1511.03,-415.04 1508.86,-406.2"/>
<polygon fill="black" stroke="black" points="1512.32,-405.59 1506.53,-396.71 1505.52,-407.26 1512.32,-405.59"/>
</g>
<!-- n5218245636275575 -->
<g id="node46" class="node">
<title>n5218245636275575</title>
<ellipse fill="#86bafd" stroke="black" cx="1484.77" cy="-252" rx="36" ry="36"/>
<text text-anchor="middle" x="1484.77" y="-248.5" font-family="Helvetica,sans-Serif" font-size="10.00">IDS</text>
</g>
<!-- n8941895205696458&#45;&gt;n5218245636275575 -->
<g id="edge45" class="edge">
<title>n8941895205696458&#45;&gt;n5218245636275575</title>
<path fill="none" stroke="black" d="M1493.48,-324C1492.51,-316.04 1491.45,-307.46 1490.43,-299.12"/>
<polygon fill="black" stroke="black" points="1493.94,-298.97 1489.25,-289.47 1486.99,-299.82 1493.94,-298.97"/>
</g>
<!-- n4239082686083888 -->
<g id="node47" class="node">
<title>n4239082686083888</title>
<ellipse fill="#86bafd" stroke="black" cx="1430.77" cy="-144" rx="36" ry="36"/>
<text text-anchor="middle" x="1430.77" y="-140.5" font-family="Helvetica,sans-Serif" font-size="10.00">DECLARACION</text>
</g>
<!-- n5218245636275575&#45;&gt;n4239082686083888 -->
<g id="edge46" class="edge">
<title>n5218245636275575&#45;&gt;n4239082686083888</title>
<path fill="none" stroke="black" d="M1468.72,-219.48C1463.49,-209.22 1457.6,-197.66 1452.05,-186.76"/>
<polygon fill="black" stroke="black" points="1455.21,-185.25 1447.55,-177.93 1448.97,-188.43 1455.21,-185.25"/>
</g>
<!-- n1967443673873380 -->
<g id="node48" class="node">
<title>n1967443673873380</title>
<ellipse fill="#86bafd" stroke="black" cx="1430.77" cy="-36" rx="36" ry="36"/>
<text text-anchor="middle" x="1430.77" y="-32.5" font-family="Helvetica,sans-Serif" font-size="10.00">@nombre</text>
</g>
<!-- n4239082686083888&#45;&gt;n1967443673873380 -->
<g id="edge47" class="edge">
<title>n4239082686083888&#45;&gt;n1967443673873380</title>
<path fill="none" stroke="black" d="M1430.77,-107.7C1430.77,-99.93 1430.77,-91.57 1430.77,-83.43"/>
<polygon fill="black" stroke="black" points="1434.27,-83.66 1430.77,-73.66 1427.27,-83.66 1434.27,-83.66"/>
</g>
<!-- n2299999509907064 -->
<g id="node50" class="node">
<title>n2299999509907064</title>
<ellipse fill="#86bafd" stroke="black" cx="1646.77" cy="-360" rx="36" ry="36"/>
<text text-anchor="middle" x="1646.77" y="-356.5" font-family="Helvetica,sans-Serif" font-size="10.00">DECLARACIONES</text>
</g>
<!-- n624418554326015&#45;&gt;n2299999509907064 -->
<g id="edge49" class="edge">
<title>n624418554326015&#45;&gt;n2299999509907064</title>
<path fill="none" stroke="black" d="M1646.77,-431.7C1646.77,-423.93 1646.77,-415.57 1646.77,-407.43"/>
<polygon fill="black" stroke="black" points="1650.27,-407.66 1646.77,-397.66 1643.27,-407.66 1650.27,-407.66"/>
</g>
<!-- n3062599697725192 -->
<g id="node51" class="node">
<title>n3062599697725192</title>
<ellipse fill="#86bafd" stroke="black" cx="1646.77" cy="-252" rx="36" ry="36"/>
<text text-anchor="middle" x="1646.77" y="-248.5" font-family="Helvetica,sans-Serif" font-size="10.00">IDS</text>
</g>
<!-- n2299999509907064&#45;&gt;n3062599697725192 -->
<g id="edge50" class="edge">
<title>n2299999509907064&#45;&gt;n3062599697725192</title>
<path fill="none" stroke="black" d="M1646.77,-323.7C1646.77,-315.93 1646.77,-307.57 1646.77,-299.43"/>
<polygon fill="black" stroke="black" points="1650.27,-299.66 1646.77,-289.66 1643.27,-299.66 1650.27,-299.66"/>
</g>
<!-- n8344008354750212 -->
<g id="node52" class="node">
<title>n8344008354750212</title>
<ellipse fill="#86bafd" stroke="black" cx="1538.77" cy="-144" rx="36" ry="36"/>
<text text-anchor="middle" x="1538.77" y="-140.5" font-family="Helvetica,sans-Serif" font-size="10.00">DECLARACION</text>
</g>
<!-- n3062599697725192&#45;&gt;n8344008354750212 -->
<g id="edge51" class="edge">
<title>n3062599697725192&#45;&gt;n8344008354750212</title>
<path fill="none" stroke="black" d="M1621.45,-226.15C1606.8,-211.77 1588.18,-193.49 1572.32,-177.92"/>
<polygon fill="black" stroke="black" points="1574.98,-175.63 1565.39,-171.12 1570.08,-180.63 1574.98,-175.63"/>
</g>
<!-- n5229902957551094 -->
<g id="node54" class="node">
<title>n5229902957551094</title>
<ellipse fill="#86bafd" stroke="black" cx="1646.77" cy="-144" rx="36" ry="36"/>
<text text-anchor="middle" x="1646.77" y="-140.5" font-family="Helvetica,sans-Serif" font-size="10.00">DECLARACION</text>
</g>
<!-- n3062599697725192&#45;&gt;n5229902957551094 -->
<g id="edge53" class="edge">
<title>n3062599697725192&#45;&gt;n5229902957551094</title>
<path fill="none" stroke="black" d="M1646.77,-215.7C1646.77,-207.93 1646.77,-199.57 1646.77,-191.43"/>
<polygon fill="black" stroke="black" points="1650.27,-191.66 1646.77,-181.66 1643.27,-191.66 1650.27,-191.66"/>
</g>
<!-- n2617493765408313 -->
<g id="node53" class="node">
<title>n2617493765408313</title>
<ellipse fill="#86bafd" stroke="black" cx="1538.77" cy="-36" rx="36" ry="36"/>
<text text-anchor="middle" x="1538.77" y="-32.5" font-family="Helvetica,sans-Serif" font-size="10.00">@email</text>
</g>
<!-- n8344008354750212&#45;&gt;n2617493765408313 -->
<g id="edge52" class="edge">
<title>n8344008354750212&#45;&gt;n2617493765408313</title>
<path fill="none" stroke="black" d="M1538.77,-107.7C1538.77,-99.93 1538.77,-91.57 1538.77,-83.43"/>
<polygon fill="black" stroke="black" points="1542.27,-83.66 1538.77,-73.66 1535.27,-83.66 1542.27,-83.66"/>
</g>
<!-- n691153650854235 -->
<g id="node55" class="node">
<title>n691153650854235</title>
<ellipse fill="#86bafd" stroke="black" cx="1646.77" cy="-36" rx="36" ry="36"/>
<text text-anchor="middle" x="1646.77" y="-32.5" font-family="Helvetica,sans-Serif" font-size="10.00">@edad</text>
</g>
<!-- n5229902957551094&#45;&gt;n691153650854235 -->
<g id="edge54" class="edge">
<title>n5229902957551094&#45;&gt;n691153650854235</title>
<path fill="none" stroke="black" d="M1646.77,-107.7C1646.77,-99.93 1646.77,-91.57 1646.77,-83.43"/>
<polygon fill="black" stroke="black" points="1650.27,-83.66 1646.77,-73.66 1643.27,-83.66 1650.27,-83.66"/>
</g>
<!-- n6991413881860686 -->
<g id="node57" class="node">
<title>n6991413881860686</title>
<ellipse fill="#86bafd" stroke="black" cx="1753.77" cy="-360" rx="36" ry="36"/>
<text text-anchor="middle" x="1753.77" y="-356.5" font-family="Helvetica,sans-Serif" font-size="10.00">DECLARACIONES</text>
</g>
<!-- n491211434096242&#45;&gt;n6991413881860686 -->
<g id="edge56" class="edge">
<title>n491211434096242&#45;&gt;n6991413881860686</title>
<path fill="none" stroke="black" d="M1753.77,-431.7C1753.77,-423.93 1753.77,-415.57 1753.77,-407.43"/>
<polygon fill="black" stroke="black" points="1757.27,-407.66 1753.77,-397.66 1750.27,-407.66 1757.27,-407.66"/>
</g>
<!-- n6429454530887645 -->
<g id="node58" class="node">
<title>n6429454530887645</title>
<ellipse fill="#86bafd" stroke="black" cx="1753.77" cy="-252" rx="36" ry="36"/>
<text text-anchor="middle" x="1753.77" y="-248.5" font-family="Helvetica,sans-Serif" font-size="10.00">IDS</text>
</g>
<!-- n6991413881860686&#45;&gt;n6429454530887645 -->
<g id="edge57" class="edge">
<title>n6991413881860686&#45;&gt;n6429454530887645</title>
<path fill="none" stroke="black" d="M1753.77,-323.7C1753.77,-315.93 1753.77,-307.57 1753.77,-299.43"/>
<polygon fill="black" stroke="black" points="1757.27,-299.66 1753.77,-289.66 1750.27,-299.66 1757.27,-299.66"/>
</g>
<!-- n8547139400852951 -->
<g id="node59" class="node">
<title>n8547139400852951</title>
<ellipse fill="#86bafd" stroke="black" cx="1753.77" cy="-144" rx="36" ry="36"/>
<text text-anchor="middle" x="1753.77" y="-140.5" font-family="Helvetica,sans-Serif" font-size="10.00">DECLARACION</text>
</g>
<!-- n6429454530887645&#45;&gt;n8547139400852951 -->
<g id="edge58" class="edge">
<title>n6429454530887645&#45;&gt;n8547139400852951</title>
<path fill="none" stroke="black" d="M1753.77,-215.7C1753.77,-207.93 1753.77,-199.57 1753.77,-191.43"/>
<polygon fill="black" stroke="black" points="1757.27,-191.66 1753.77,-181.66 1750.27,-191.66 1757.27,-191.66"/>
</g>
<!-- n3376298000223028 -->
<g id="node60" class="node">
<title>n3376298000223028</title>
<ellipse fill="#86bafd" stroke="black" cx="1753.77" cy="-36" rx="36" ry="36"/>
<text text-anchor="middle" x="1753.77" y="-32.5" font-family="Helvetica,sans-Serif" font-size="10.00">@imprimir</text>
</g>
<!-- n8547139400852951&#45;&gt;n3376298000223028 -->
<g id="edge59" class="edge">
<title>n8547139400852951&#45;&gt;n3376298000223028</title>
<path fill="none" stroke="black" d="M1753.77,-107.7C1753.77,-99.93 1753.77,-91.57 1753.77,-83.43"/>
<polygon fill="black" stroke="black" points="1757.27,-83.66 1753.77,-73.66 1750.27,-83.66 1757.27,-83.66"/>
</g>
<!-- n6487712327679409 -->
<g id="node61" class="node">
<title>n6487712327679409</title>
<ellipse fill="#86bafd" stroke="black" cx="1861.77" cy="-36" rx="36" ry="36"/>
<text text-anchor="middle" x="1861.77" y="-32.5" font-family="Helvetica,sans-Serif" font-size="10.00">hola</text>
</g>
<!-- n8547139400852951&#45;&gt;n6487712327679409 -->
<g id="edge60" class="edge">
<title>n8547139400852951&#45;&gt;n6487712327679409</title>
<path fill="none" stroke="black" d="M1779.1,-118.15C1793.75,-103.77 1812.37,-85.49 1828.23,-69.92"/>
<polygon fill="black" stroke="black" points="1830.47,-72.63 1835.16,-63.12 1825.57,-67.63 1830.47,-72.63"/>
</g>
</g>
</svg>
